<svg id="Layer_1" data-name="Layer 1" xmlns="http://www.w3.org/2000/svg" viewBox="0 0 500 500"><defs><style>.cls-1{fill:#fff;}</style></defs><title>tlogo</title><path class="cls-1" d="M307.35,135l-29.75,0c-33.43,0-55,22.24-55,56.66v26.12H192.66a4.68,4.68,0,0,0-4.68,4.69v37.85a4.68,4.68,0,0,0,4.68,4.69h29.91v95.5a4.68,4.68,0,0,0,4.68,4.69h39a4.68,4.68,0,0,0,4.68-4.69v-95.5h35a4.68,4.68,0,0,0,4.67-4.69l0-37.85a4.74,4.74,0,0,0-1.37-3.32,4.68,4.68,0,0,0-3.31-1.37H271V195.53c0-10.64,2.53-16,16.34-16h20.05a4.68,4.68,0,0,0,4.67-4.69V139.65A4.69,4.69,0,0,0,307.35,135Z"/><path class="cls-1" d="M250,500.81A250.4,250.4,0,0,1,0,250,250,250,0,1,1,426.78,427.35,248,248,0,0,1,250,500.81ZM250,9A240.6,240.6,0,0,0,9.81,250a240.19,240.19,0,1,0,410-170.42A238.22,238.22,0,0,0,250,9Z"/></svg>