<svg id="Layer_1" data-name="Layer 1" xmlns="http://www.w3.org/2000/svg" viewBox="0 0 500 500"><defs><style>.cls-1{fill:#fff;}</style></defs><title>tlogo</title><path class="cls-1" d="M250,500A250,250,0,0,1,73.22,73.22,250,250,0,0,1,426.78,426.78,248.33,248.33,0,0,1,250,500ZM250,9.8a240.2,240.2,0,0,0-169.84,410A240.19,240.19,0,0,0,419.84,80.15,238.63,238.63,0,0,0,250,9.8Z"/><path class="cls-1" d="M293,135.27H207A71.72,71.72,0,0,0,135.27,207v86A71.72,71.72,0,0,0,207,364.73h86A71.72,71.72,0,0,0,364.73,293V207A71.72,71.72,0,0,0,293,135.27ZM343.22,293a50.26,50.26,0,0,1-50.2,50.2H207A50.25,50.25,0,0,1,156.79,293V207A50.25,50.25,0,0,1,207,156.78h86a50.26,50.26,0,0,1,50.2,50.2Z"/><path class="cls-1" d="M250,192.63A57.37,57.37,0,1,0,307.37,250,57.37,57.37,0,0,0,250,192.63Zm0,93.22A35.85,35.85,0,1,1,285.85,250,35.9,35.9,0,0,1,250,285.85Z"/><circle class="cls-1" cx="311.67" cy="188.33" r="7.64"/></svg>